<?xml version="1.0" standalone="no"?>
<!DOCTYPE svg PUBLIC "-//W3C//DTD SVG 1.1//EN" "http://www.w3.org/Graphics/SVG/1.1/DTD/svg11.dtd" >
<svg xmlns="http://www.w3.org/2000/svg">
<metadata>Generated by IcoMoon</metadata>
<defs>
<font id="icomoon" horiz-adv-x="1024">
<font-face units-per-em="1024" ascent="960" descent="-64" />
<missing-glyph horiz-adv-x="1024" />
<glyph unicode="&#x20;" horiz-adv-x="512" d="" />
<glyph unicode="&#xe900;" glyph-name="designed" horiz-adv-x="535" d="M11.725 541.030v0.026l-0.026 0.051 0.026-0.077zM9.907 399.232v0 0zM18.662 257.408v0 0zM54.221 261.914h440.73l-37.734-103.014h-365.235l-37.76 103.014zM190.336 769.536h26.752c9.657 0 17.485 7.828 17.485 17.485v0 45.722h66.176v-45.722c0 0 0 0 0 0 0-9.648 7.814-17.47 17.458-17.485h23.041v-47.181h-151.040v47.181zM490.778 553.139v0zM74.24 545.562h413.773l-39.142-106.854h-362.419l-39.168 106.854zM172.851 687.411h315.162l-39.142-106.88h-362.419l-39.168 106.88zM84.659 296.96l-39.168 106.854h440.73l-39.168-106.854zM533.299-15.565l-52.019 138.445 49.306 134.605c1.145 3.014 1.807 6.498 1.807 10.138 0 16.203-13.135 29.338-29.338 29.338-0.014 0-0.029 0-0.043 0h-18.712l37.504 102.4c1.135 2.955 1.792 6.374 1.792 9.946 0 0.058 0 0.116-0.001 0.174v-0.009c-0.015 16.192-13.144 29.312-29.338 29.312h-8.166l37.53 102.4c1.133 2.999 1.788 6.466 1.788 10.086 0 16.201-13.133 29.336-29.334 29.338h-9.984l37.53 102.4c1.135 3.020 1.792 6.511 1.792 10.155 0 0.030 0 0.059 0 0.089v-0.005c0 0.002 0 0.003 0 0.005 0 4.035-0.819 7.878-2.299 11.373l0.072-0.191c-4.468 10.724-14.865 18.125-26.99 18.125-0.042 0-0.084 0-0.127 0h-119.751v47.59c0 0.028 0 0.062 0 0.095 0 4.794-0.998 9.355-2.798 13.486l0.085-0.218c-5.35 12.437-17.497 20.989-31.641 20.992h-6.272v45.696c0 9.657-7.828 17.485-17.485 17.485v0h-33.485l-1.101 75.085c0.002 0.108 0.004 0.235 0.004 0.362 0 9.657-7.828 17.485-17.485 17.485s-17.485-7.828-17.485-17.485c0-0.307 0.008-0.613 0.024-0.916l-0.002 0.042 1.101-74.573h-32.691c-9.624-0.044-17.408-7.855-17.408-17.485 0 0 0 0 0 0v0-45.696h-9.958c-0.008 0-0.017 0-0.026 0-18.946 0-34.304-15.358-34.304-34.304 0-0.018 0-0.036 0-0.054v0.003-47.795h-116.147c-0.039 0-0.086 0-0.132 0-4.175 0-8.142-0.886-11.725-2.48l0.184 0.073c-10.479-4.628-17.66-14.928-17.664-26.905v-0.001c-0.001-0.075-0.001-0.163-0.001-0.251 0-3.589 0.667-7.022 1.884-10.183l-0.066 0.194 37.504-102.4h-9.984c-0.008 0-0.017 0-0.026 0-16.144 0-29.239-13.051-29.312-29.177v-0.007c-0.001-0.075-0.001-0.163-0.001-0.251 0-3.589 0.667-7.022 1.884-10.183l-0.066 0.194 37.504-102.4h-11.802c-4.212-0.010-8.214-0.894-11.839-2.481l0.191 0.075c-10.494-4.616-17.689-14.923-17.689-26.909 0-3.648 0.666-7.14 1.884-10.361l-0.067 0.202 37.504-102.4h-1.331c-16.092-0.057-29.131-13.051-29.261-29.12v-0.012c0-0.023 0-0.051 0-0.079 0-3.65 0.676-7.143 1.91-10.359l-0.067 0.198 42.445-115.891-59.085-157.005-0.307-0.896c-1.095-3.312-1.726-7.125-1.726-11.085 0-20.133 16.321-36.454 36.454-36.454 0.031 0 0.062 0 0.093 0h102.139c9.657 0 17.485 7.828 17.485 17.485s-7.828 17.485-17.485 17.485v0h-102.144c-0.092-0.019-0.198-0.031-0.307-0.031s-0.215 0.011-0.317 0.032l0.010-0.002c-0.286 0.131-0.52 0.333-0.687 0.583l-0.004 0.006c-0.16 0.228-0.256 0.512-0.256 0.818 0 0.001 0 0.001 0 0.002v0c-0.005 0.046-0.008 0.099-0.008 0.154s0.003 0.108 0.009 0.16l-0.001-0.007 56.858 151.168h353.28c0-0.41 0-0.794 0-1.178v0c0.005-2.207 0.408-4.318 1.142-6.268l-0.041 0.124 54.093-143.795c0-0.128 0-0.23 0-0.333-0.024-0.19-0.069-0.363-0.133-0.527l0.005 0.015c-0.119-0.316-0.323-0.578-0.584-0.765l-0.005-0.003-0.358-0.179h-244.019c-9.657 0-17.485-7.828-17.485-17.485s7.828-17.485 17.485-17.485v0h243.584c0.016 0 0.034 0 0.053 0 20.147 0 36.48 16.333 36.48 36.48 0 3.951-0.628 7.754-1.79 11.317l0.073-0.258-0.307 0.896zM393.6 53.043c0 0.008 0 0.017 0 0.026 0 11.424-9.261 20.685-20.685 20.685s-20.685-9.261-20.685-20.685c0-11.424 9.261-20.685 20.685-20.685v0c11.415 0 20.67 9.246 20.685 20.658v0.001zM176.256 73.728c-11.424 0-20.685-9.261-20.685-20.685s9.261-20.685 20.685-20.685c11.424 0 20.685 9.261 20.685 20.685v0c0 11.424-9.261 20.685-20.685 20.685v0zM274.586 32.384c11.424 0 20.685 9.261 20.685 20.685s-9.261 20.685-20.685 20.685c-11.424 0-20.685-9.261-20.685-20.685 0-0.009 0-0.018 0-0.027v0.001c0-11.41 9.249-20.659 20.659-20.659 0.009 0 0.018 0 0.027 0h-0.001z" />
<glyph unicode="&#xe901;" glyph-name="fb" horiz-adv-x="473" d="M107.481-64h205.842v515.908h142.656l15.634 173.272h-158.29v98.361c0 41.038 8.468 56.672 47.552 56.672h112.041v179.786h-142.656c-153.73 0-222.779-65.14-222.779-195.42v-139.399h-107.481v-175.226h107.481z" />
<glyph unicode="&#xe902;" glyph-name="g" horiz-adv-x="1663" d="M979.439 478.92h-476.533v-136.412h321.933c-21.779-154.924-153.45-272.824-312.659-272.824-0.063 0-0.126 0-0.189 0h0.010c-204.601 2.388-369.542 168.804-369.542 373.745 0 206.427 167.342 373.769 373.769 373.769 96.048 0 183.635-36.229 249.84-95.766l-0.341 0.302 105.492 90.941c-92.382 91.079-219.314 147.325-359.383 147.325-282.77 0-512-229.23-512-512s229.23-512 512-512c0.058 0 0.116 0 0.174 0h-0.010c1.305-0.013 2.846-0.021 4.389-0.021 256.15 0 463.801 207.651 463.801 463.801 0 9.285-0.273 18.507-0.811 27.657l0.059-1.263zM1663.318 472.554h-196.433v197.343h-125.499v-197.343h-196.433v-124.59h196.433v-196.433h125.499v196.433h196.433v124.59z" />
<glyph unicode="&#xe903;" glyph-name="insta" d="M512.36 867.761c136.197 0 152.771 0 206.818 0 34.281-0.352 66.924-6.931 96.991-18.657l-1.869 0.642c22.896-8.672 42.39-21.68 58.329-38.15l0.041-0.043c16.741-15.828 29.796-35.374 37.859-57.33l0.334-1.040c11.010-28.198 17.582-60.829 18.014-94.94l0.002-0.182c0-54.046 0-72.062 0-207.538s0-152.771 0-206.818c-0.352-34.281-6.931-66.924-18.657-96.991l0.642 1.869c-17.74-44.349-52.214-78.823-95.413-96.156l-1.15-0.407c-28.198-11.084-60.841-17.664-94.975-18.014l-0.146-0.001c-54.046 0-72.062 0-206.818 0s-153.492 0-207.538 0c-34.292 0.434-66.923 7.005-97.020 18.662l1.899-0.647c-22.996 8.397-42.543 21.452-58.304 38.122l-0.066 0.071c-16.513 15.981-29.521 35.475-37.83 57.287l-0.362 1.083c-10.587 26.857-17.119 57.936-18.007 90.424l-0.008 0.374c0 54.046 0 72.062 0 206.818s0 153.492 0 207.538c0.434 34.292 7.005 66.923 18.662 97.020l-0.647-1.899c8.481 23.453 21.522 43.451 38.168 59.787l0.024 0.024c15.981 16.513 35.475 29.521 57.287 37.83l1.083 0.362c28.198 11.010 60.829 17.582 94.94 18.014l0.182 0.002c54.046 0 72.062 0 207.538 0zM512.36 960c-139.080 0-157.095 0-211.141 0-45.412-2.323-87.934-11.904-127.353-27.607l2.685 0.944c-69.077-27.162-122.727-80.812-149.272-148.116l-0.616-1.773c-14.759-36.733-24.339-79.254-26.623-123.704l-0.039-0.964c0-54.046 0-72.062 0-211.141s0-156.374 0-208.259c1.383-44.838 9.984-87.247 24.676-126.691l-0.896 2.744c27.162-69.077 80.812-122.727 148.116-149.272l1.773-0.616c36.925-13.861 79.591-22.468 124.091-23.767l0.576-0.013c54.046 0 72.062 0 211.141 0s156.374 0 211.141 0c44.838 1.383 87.247 9.984 126.691 24.676l-2.744-0.896c69.077 27.162 122.727 80.812 149.272 148.116l0.616 1.773c14.694 36.51 24.269 78.774 26.621 122.955l0.042 0.991c0 54.767 0 72.062 0 211.141s0 157.095 0 211.141c-1.312 45.076-9.919 87.743-24.677 127.417l0.896-2.75c-27.802 67.908-81.308 120.474-148.105 146.397l-1.784 0.609c-37.406 15.005-80.706 24.61-125.979 26.633l-0.85 0.030c-51.885 0-72.062 0-208.259 0zM512.36 710.666c-0.214 0.001-0.467 0.001-0.721 0.001-145.265 0-263.026-117.761-263.026-263.026s117.761-263.026 263.026-263.026c145.265 0 263.026 117.76 263.026 263.025v0c0.001 0.214 0.001 0.467 0.001 0.721 0 144.867-117.438 262.305-262.305 262.305 0 0-0.001 0-0.001 0v0zM512.36 278.294c-0.212-0.001-0.463-0.001-0.715-0.001-94.323 0-170.787 76.464-170.787 170.787s76.464 170.787 170.787 170.787c94.323 0 170.787-76.464 170.787-170.787 0-0.506-0.002-1.012-0.007-1.517l0.001 0.077c-0.407-93.76-76.305-169.659-170.027-170.066h-0.039zM846.728 721.475c0-33.829-27.424-61.253-61.253-61.253s-61.253 27.424-61.253 61.253v0c0 33.829 27.424 61.253 61.253 61.253s61.253-27.424 61.253-61.253v0z" />
<glyph unicode="&#xe904;" glyph-name="linkedin" horiz-adv-x="1023" d="M20.48 618.929h211.102v-682.142h-211.102v682.142zM125.243 707.938c69.605 0 126.031 56.426 126.031 126.031s-56.426 126.031-126.031 126.031v0c-69.605 0-126.031-56.426-126.031-126.031s56.426-126.031 126.031-126.031v0zM569.502 294.4c0 96.098 44.111 153.6 128.394 153.6s115.003-55.138 115.003-153.6v-358.4h211.102v432.443c0 182.745-103.188 270.966-248.123 270.966-1.482 0.033-3.228 0.052-4.979 0.052-84.771 0-159.117-44.637-200.815-111.689l-0.581-1.003v92.16h-203.225v-682.929h203.225z" />
<glyph unicode="&#xe905;" glyph-name="mail" horiz-adv-x="1304" d="M1115.594 960h-926.231c-0.306 0.002-0.667 0.003-1.029 0.003-104.014 0-188.334-84.32-188.334-188.334 0-0.001 0-0.002 0-0.003v0-647.676c0.195-103.866 84.44-187.991 188.333-187.991 0 0 0 0 0 0h926.231c0.204-0.001 0.445-0.001 0.686-0.001 103.894 0 188.139 84.125 188.333 187.973v647.695c0 0 0 0 0 0 0 103.893-84.124 188.138-187.972 188.333h-0.019zM1115.594 870.121c7.937-0.050 15.617-1.048 22.965-2.886l-0.667 0.141-391.075-443.905c-23.253-26.381-57.12-42.936-94.853-42.936s-71.6 16.555-94.734 42.798l-0.119 0.138-391.075 443.905c6.693 1.74 14.378 2.741 22.296 2.744h0.002zM1213.706 123.991c0-54.186-43.926-98.112-98.112-98.112v0h-926.231c0 0 0 0-0.001 0-54.255 0-98.259 43.884-98.454 98.093v647.695c-0.018 0.699-0.028 1.521-0.028 2.346 0 12.607 2.403 24.652 6.776 35.703l-0.229-0.657 392.105-445.963c39.802-45.081 97.729-73.365 162.262-73.365s122.46 28.284 162.060 73.132l0.202 0.233 392.448 445.963c4.505-11.073 7.145-23.916 7.204-37.368v-0.024z" />
<glyph unicode="&#xe906;" glyph-name="phone" d="M989.721 208.887l-125.353 125.017c-15.996 16.001-38.096 25.898-62.509 25.898s-46.513-9.897-62.509-25.898v0l-57.132-56.796c-12.149-12.079-28.895-19.545-47.386-19.545s-35.237 7.466-47.389 19.548l0.003-0.003-246.674 246.002c-12.179 12.166-19.713 28.98-19.713 47.554s7.534 35.388 19.712 47.553l56.797 56.797c16.101 16.012 26.067 38.181 26.067 62.677s-9.965 46.664-26.063 62.673l-0.004 0.004-125.017 126.026c-15.996 16.001-38.096 25.898-62.509 25.898s-46.513-9.897-62.509-25.898v0l-46.713-45.705c-57.745-57.821-93.455-137.659-93.455-225.838s35.711-168.017 93.459-225.842l-0.004 0.004 391.856-390.847c57.693-57.888 137.498-93.705 225.67-93.705s167.977 35.817 225.661 93.696l0.009 0.009 45.705 45.369c15.861 16.122 25.653 38.256 25.653 62.677s-9.792 46.555-25.665 62.689l0.012-0.012zM821.687 292.232l126.026-125.353c5.473-5.267 8.873-12.655 8.873-20.836s-3.4-15.569-8.863-20.827l-20.845-20.845-168.034 168.034 20.836 20.836c5.364 5.424 12.806 8.784 21.033 8.784 8.714 0 16.548-3.769 21.961-9.766l0.023-0.026zM230.879 884.049l125.017-125.69c5.307-5.344 8.587-12.707 8.587-20.836s-3.28-15.492-8.588-20.838l0.002 0.002-19.828-20.164-168.034 168.034 20.5 20.5c5.361 5.132 12.646 8.291 20.67 8.291 8.524 0 16.215-3.566 21.663-9.287l0.012-0.012zM533.34 79.837l-389.839 390.847c-47.213 46.993-76.429 112.032-76.429 183.894 0 63.464 22.787 121.606 60.625 166.69l-0.327-0.4 166.018-168.034c-19.455-22.070-31.33-51.227-31.33-83.158 0-34.866 14.159-66.426 37.041-89.242l246.677-246.677c22.819-22.885 54.379-37.044 89.245-37.044 31.931 0 61.088 11.875 83.296 31.45l-0.138-0.119 166.354-166.354c-44.487-37.031-102.228-59.508-165.218-59.508-72.424 0-137.908 29.714-184.926 77.616l-0.039 0.040z" />
<glyph unicode="&#xe907;" glyph-name="quality" horiz-adv-x="719" d="M576.916 602.404c0 120.050-97.32 217.37-217.37 217.37s-217.37-97.32-217.37-217.37c0-120.050 97.32-217.37 217.37-217.37 0.019 0 0.038 0 0.056 0h-0.003c119.97 0.173 217.174 97.396 217.316 217.356v0.014zM359.6 406.503c-108.193 0-195.901 87.708-195.901 195.901s87.708 195.901 195.901 195.901c108.193 0 195.901-87.708 195.901-195.901v0c-0.122-108.144-87.757-195.779-195.889-195.901h-0.012zM718.144 44.757l-141.335 311.063c3.256 7.156 6.816 13.579 11.325 18.069 7.425 7.442 19.858 12.327 33.044 17.497 18.803 7.389 38.25 15.028 48.161 32.203s6.745 37.391 3.793 57.25c-2.093 14.151-4.079 27.534-1.288 37.964 2.612 9.786 10.734 20.037 19.465 30.897 12.738 15.958 25.905 32.471 25.905 52.777s-13.167 36.819-25.905 52.777c-8.659 10.86-16.853 21.093-19.465 30.879-2.791 10.448-0.805 23.83 1.288 37.982 2.952 19.823 5.975 40.325-3.793 57.25-9.911 17.157-29.358 24.796-48.161 32.203-13.185 5.17-25.619 10.054-33.044 17.479s-12.327 19.876-17.497 33.044c-7.389 18.803-15.028 38.268-32.203 48.179-7.782 4.33-17.085 6.584-28.553 6.584-10.354-0.317-20.217-1.371-29.84-3.117l1.215 0.183c-7.602-1.399-16.534-2.35-25.633-2.64l-0.29-0.007c-0.246-0.005-0.535-0.007-0.825-0.007-3.988 0-7.86 0.499-11.557 1.437l0.324-0.070c-9.786 2.612-20.037 10.734-30.897 19.447-16.012 12.738-32.525 25.923-52.777 25.923s-36.819-13.185-52.777-25.923c-10.86-8.659-21.093-16.835-30.879-19.447-3.376-0.868-7.253-1.367-11.245-1.367-0.286 0-0.571 0.003-0.856 0.008l0.043-0.001c-9.394 0.296-18.332 1.247-27.057 2.814l1.116-0.166c-8.468 1.572-18.395 2.627-28.511 2.927l-0.293 0.007c-11.396 0-20.699-2.183-28.428-6.655-17.157-9.983-24.796-29.448-32.221-48.251-5.135-13.167-10.019-25.601-17.443-33.044s-19.876-12.237-33.044-17.479c-18.803-7.389-38.25-15.028-48.179-32.203-9.768-16.871-6.727-37.373-3.793-57.25 2.093-14.151 4.079-27.534 1.288-37.982-2.612-9.786-10.734-20.019-19.447-30.879-12.738-15.958-25.923-32.471-25.923-52.777s13.185-36.819 25.923-52.777c8.659-10.86 16.835-21.111 19.447-30.897 2.791-10.43 0.805-23.812-1.288-37.964-2.934-19.823-5.975-40.325 3.793-57.25s29.358-24.778 48.179-32.203c13.167-5.17 25.601-10.054 33.044-17.497 4.723-4.723 8.426-11.486 11.808-19.179l-141.89-309.774c-0.614-1.31-0.972-2.846-0.972-4.465 0-2.401 0.788-4.618 2.12-6.406l-0.020 0.029c1.977-2.651 5.104-4.348 8.628-4.348 0.49 0 0.973 0.033 1.446 0.097l-0.055-0.006 124.786 16.227 69.254-105.071c1.945-2.922 5.222-4.823 8.944-4.83h0.824c3.981 0.314 7.325 2.756 8.918 6.178l0.028 0.066 134.734 294.174 134.662-294.156c1.621-3.488 4.965-5.93 8.908-6.241l0.037-0.002h0.823c3.723 0.007 7 1.908 8.921 4.791l0.025 0.039 69.254 105.071 124.751-16.245c0.417-0.058 0.9-0.090 1.39-0.090 5.928 0 10.734 4.806 10.734 10.734 0 1.609-0.354 3.134-0.988 4.504l0.028-0.066zM213.416-31.135l-62.277 94.444c-1.948 2.928-5.235 4.832-8.966 4.832-0.491 0-0.975-0.033-1.448-0.097l0.055 0.006-112.156-14.599 125.359 273.976c6.119-14.116 13.65-27.194 26.728-34.743 7.729-4.491 17.032-6.655 28.428-6.655 10.378 0.282 20.297 1.312 29.973 3.041l-1.206-0.179c7.603 1.4 16.535 2.351 25.634 2.641l0.289 0.007c0.242 0.004 0.527 0.007 0.813 0.007 3.993 0 7.869-0.498 11.57-1.436l-0.325 0.070c9.786-2.612 20.019-10.734 30.879-19.465s22.113-17.64 34.6-22.399zM359.6 266.277c-12.792 0-25.709 10.305-39.359 21.218-12.094 9.661-24.599 19.68-38.733 23.419-5.004 1.334-10.749 2.099-16.672 2.099-0.321 0-0.642-0.002-0.963-0.007l0.049 0.001c-10.489-0.285-20.513-1.321-30.294-3.060l1.222 0.18c-7.514-1.389-16.34-2.334-25.333-2.623l-0.286-0.007c-7.514 0-13.293 1.217-17.676 3.757-10.734 6.172-16.638 21.361-22.954 37.445-5.797 14.652-11.79 29.859-22.381 40.379s-25.727 16.549-40.379 22.292c-16.101 6.315-31.273 12.291-37.427 22.936s-3.578 26.389-1.145 43.313c2.326 15.69 4.741 31.935 0.805 46.658-3.775 14.134-13.758 26.639-23.419 38.733-10.931 13.686-21.236 26.603-21.236 39.359s10.305 25.709 21.236 39.359c9.643 12.112 19.68 24.617 23.419 38.751 3.936 14.724 1.521 30.968-0.805 46.658-2.505 16.924-4.884 32.919 1.145 43.295 6.154 10.734 21.343 16.638 37.427 22.954 14.652 5.743 29.788 11.7 40.379 22.292s16.585 25.78 22.292 40.433c6.315 16.101 12.291 31.273 22.954 37.445 4.383 2.523 10.162 3.757 17.676 3.757 9.279-0.296 18.106-1.24 26.721-2.795l-1.101 0.165c8.559-1.559 18.583-2.595 28.796-2.874l0.276-0.006c0.346-0.006 0.754-0.010 1.163-0.010 5.832 0 11.493 0.734 16.895 2.116l-0.471-0.102c14.134 3.793 26.639 13.776 38.733 23.419 13.686 11.003 26.603 21.308 39.449 21.308s25.709-10.305 39.359-21.236c12.094-9.643 24.599-19.68 38.733-23.419 5.015-1.322 10.773-2.081 16.708-2.081 0.315 0 0.63 0.002 0.944 0.006l-0.048-0.001c10.49 0.286 20.514 1.322 30.295 3.060l-1.223-0.18c7.464 1.406 16.249 2.375 25.199 2.693l0.313 0.009c7.532 0 13.311-1.234 17.694-3.757 10.734-6.172 16.62-21.361 22.936-37.445 5.761-14.652 11.7-29.788 22.292-40.379s25.744-16.549 40.379-22.292c16.101-6.315 31.273-12.291 37.445-22.954 6.011-10.394 3.578-26.371 1.127-43.295-2.326-15.69-4.723-31.935-0.787-46.658 3.775-14.134 13.758-26.639 23.419-38.751 10.913-13.668 21.218-26.585 21.218-39.359s-10.305-25.709-21.218-39.359c-9.661-12.094-19.68-24.599-23.419-38.733-3.936-14.742-1.539-30.968 0.787-46.658 2.523-16.924 4.884-32.919-1.127-43.313-6.172-10.734-21.361-16.62-37.445-22.936-14.634-5.743-29.788-11.7-40.379-22.292s-16.531-25.744-22.292-40.379c-6.315-16.101-12.273-31.273-22.936-37.445-4.383-2.54-10.18-3.757-17.694-3.757-9.272 0.295-18.092 1.239-26.7 2.795l1.099-0.165c-8.558 1.558-18.582 2.594-28.795 2.874l-0.277 0.006c-0.275 0.004-0.6 0.006-0.925 0.006-5.926 0-11.674-0.766-17.148-2.204l0.469 0.105c-14.134-3.775-26.639-13.758-38.733-23.419-13.615-11.038-26.532-21.343-39.27-21.343zM578.365 68.050c-0.413 0.056-0.891 0.089-1.376 0.089-3.73 0-7.016-1.903-8.94-4.79l-0.025-0.039-62.348-94.444-127.953 279.45c12.523 4.759 23.669 13.686 34.6 22.399s21.111 16.853 30.897 19.465c3.373 0.868 7.245 1.367 11.233 1.367 0.29 0 0.58-0.003 0.869-0.008l-0.043 0.001c9.406-0.295 18.357-1.246 27.094-2.814l-1.117 0.166c8.465-1.549 18.377-2.579 28.477-2.857l0.273-0.006c11.396 0 20.699 2.165 28.446 6.655 13.382 7.747 20.968 21.308 27.176 35.781l124.947-275.013zM497.822 679.119c-1.983 2.394-4.957 3.908-8.284 3.908-2.596 0-4.977-0.922-6.833-2.456l0.018 0.015-174.433-143.661-68.288 78.038c-1.949 1.986-4.662 3.217-7.663 3.217-5.928 0-10.734-4.806-10.734-10.734 0-2.514 0.865-4.827 2.313-6.657l-0.017 0.022 75.14-85.875c1.978-2.252 4.863-3.665 8.078-3.665 2.6 0 4.985 0.925 6.843 2.463l-0.018-0.014 182.483 150.28c2.375 1.983 3.874 4.944 3.874 8.256 0 2.617-0.937 5.015-2.493 6.878l0.014-0.017z" />
<glyph unicode="&#xe909;" glyph-name="twitter" horiz-adv-x="1260" d="M0 47.344c111.569-72.682 248.107-115.909 394.741-115.909 0.475 0 0.951 0 1.426 0.001h-0.074c2.019-0.020 4.405-0.032 6.793-0.032 403.237 0 730.125 326.888 730.125 730.125 0 15.423-0.478 30.734-1.421 45.92l0.103-2.081c50.849 36.634 93.584 80.822 127.522 131.407l1.163 1.84c-43.363-19.739-93.665-33.91-146.439-39.941l-2.324-0.216c53.685 31.967 94.059 81.517 113.564 140.562l0.518 1.812c-47.306-28.306-102.36-49.851-160.976-61.513l-3.302-0.548c-47.345 49.939-114.162 81.012-188.236 81.012-143.149 0-259.194-116.045-259.194-259.194 0-20.637 2.412-40.711 6.969-59.955l-0.351 1.759c-213.935 12.605-401.788 114.61-528.31 268.851l-1.030 1.295c-22.467-37.594-35.75-82.924-35.75-131.356 0-88.287 44.142-166.265 111.559-213.067l0.854-0.561c-0.654-0.006-1.426-0.009-2.199-0.009-42.126 0-81.889 10.121-116.989 28.064l1.455-0.675c0.727-124.278 89.116-227.702 206.424-251.61l1.662-0.283c-17.551-4.162-37.702-6.549-58.41-6.549s-40.859 2.387-60.193 6.899l1.783-0.351c33.298-104.368 127.954-179.232 240.564-182.522l0.377-0.009c-88.521-72.299-202.78-116.104-327.27-116.104-19.421 0-38.593 1.066-57.461 3.143l2.328-0.208z" />
<glyph unicode="&#xe90a;" glyph-name="warehouse" horiz-adv-x="1310" d="M1248.242-24.042v752.047l-40.256 14.612-551.958 217.384-594.302-232.89v-751.152h-61.726v-39.958h1309.969v39.958zM749.959 278.029h-189.95v156.254h189.95zM861.484 244.333v-156.254h-189.652v156.254zM638.136 244.333v-156.254h-190.844v156.254zM894.584 54.681v-67.094h-33.1v16.699c0 9.223-7.476 16.699-16.699 16.699h-156.254c-9.223 0-16.699-7.476-16.699-16.699v0-16.699h-33.696v16.699c0 9.223-7.476 16.699-16.699 16.699h-156.254c-9.223 0-16.699-7.476-16.699-16.699v0-16.699h-33.696v67.094zM828.086-24.042h-122.856v11.63h122.856zM481.882-12.412h122.856v-11.63h-122.856zM941.997-24.042h-13.419v95.422c0 9.223-7.476 16.699-16.699 16.699v0h-17.295v173.251c-0.168 9.258-7.712 16.699-16.994 16.699-0.001 0-0.002 0-0.003 0h-94.229v172.953c0 9.223-7.476 16.699-16.699 16.699v0h-223.348c-9.223 0-16.699-7.476-16.699-16.699v0-172.953h-95.124c-9.223 0-16.699-7.476-16.699-16.699v0-173.251h-16.699c-9.223 0-16.699-7.476-16.699-16.699v0-95.422h-13.419v512.596h574.024zM1207.986-24.042h-226.031v552.853h-653.941v-552.853h-226.031v723.718l554.045 217.384 551.958-217.384zM307.439 570.558h695.091v162.814h-695.091zM838.821 693.414h123.453v-82.898h-123.453zM675.112 693.414h123.453v-82.898h-123.453zM511.404 693.414h123.453v-82.898h-123.453zM347.397 693.414h123.751v-82.898h-123.751z" />
<glyph unicode="&#xe90b;" glyph-name="whats-app" d="M1023.28 473.924c-20.18 261.728-237.518 466.455-502.673 466.455-261.851 0-477.070-199.658-501.724-455.042l-0.16-2.051v-22.323c-0.002-0.554-0.004-1.21-0.004-1.866 0-94.422 26.803-182.583 73.217-257.291l-1.202 2.077-90.734-267.882 278.684 87.854c69.678-38.706 152.812-61.489 241.267-61.489 276.468 0 500.952 222.57 504.046 498.305l0.003 0.293c0.019 0.638 0.029 1.389 0.029 2.142 0 3.816-0.272 7.569-0.799 11.24l0.049-0.42zM519.201 41.857c-86.863 0.586-167.345 27.417-234.046 72.946l1.45-0.934-162.745-51.128 53.288 155.544c-49.052 66.885-78.494 150.824-78.494 241.639 0 0.365 0 0.73 0.001 1.095v-0.056c-0.343 6.13-0.538 13.304-0.538 20.523s0.195 14.393 0.581 21.516l-0.043-0.993c22.417 214.338 202.136 379.978 420.541 379.978 221.202 0 402.72-169.909 421.163-386.336l0.107-1.563c0-10.802 0-21.603 0-33.125-1.621-230.811-188.295-417.485-418.951-419.105l-0.154-0.001zM751.797 360.146c-12.962 6.481-72.011 36.006-84.253 40.326s-20.163 5.761-28.084-6.481c-13.032-17.702-25.779-33.19-39.286-47.971l0.4 0.444c-7.201-8.641-14.402-9.361-26.644 0-38.32 14.872-71.273 35.33-99.683 60.76l0.308-0.271c-27.891 24.124-51.749 51.876-71.12 82.731l-0.891 1.522c-7.201 12.242 0 18.723 5.041 25.204s15.842 11.522 24.484 18.723c0.176 0.866 0.277 1.861 0.277 2.88s-0.101 2.014-0.293 2.977l0.016-0.096c2.604 4.013 5.243 8.733 7.585 13.622l0.337 0.78c1.693 3.129 2.688 6.849 2.688 10.802s-0.995 7.673-2.749 10.924l0.060-0.122c0 5.761-28.084 66.25-38.166 90.734s-20.163 20.163-28.084 20.163h-23.044c-12.684-0.988-23.822-6.894-31.64-15.79l-0.045-0.053c-26.626-24.792-43.227-60.045-43.227-99.175 0-0.83 0.007-1.658 0.022-2.485l-0.002 0.124c0.24-15.229 2.592-29.817 6.773-43.609l-0.292 1.122c10.582-32.478 25.521-60.68 44.451-85.696l-0.524 0.722c51.905-78.895 123.185-141.16 207.206-180.884l3.067-1.304c125.3-48.968 125.3-32.405 148.343-30.965 35.437 7.076 64.86 28.475 82.501 57.771l0.312 0.558c5.702 11.692 9.035 25.438 9.035 39.962 0 6.501-0.668 12.845-1.938 18.969l0.104-0.602c-2.88 5.041-10.802 7.921-23.044 13.682z" />
<glyph unicode="&#xe90c;" glyph-name="youtube" horiz-adv-x="1453" d="M1422.918 799.765c-16.845 63.232-65.445 112.109-127.251 129.059l-1.271 0.297c-154.682 19.863-333.621 31.199-515.207 31.199-18.387 0-36.748-0.116-55.080-0.348l2.789 0.028c-15.596 0.205-34.014 0.321-52.458 0.321-181.822 0-360.996-11.337-536.854-33.341l20.98 2.141c-63.076-17.247-111.676-66.124-128.234-128.091l-0.288-1.265c-19.137-101.953-30.083-219.244-30.083-339.093 0-4.308 0.014-8.613 0.042-12.915l-0.003 0.66c-0.025-3.689-0.040-8.052-0.040-12.419 0-120.082 10.946-237.608 31.894-351.633l-1.81 11.87c16.845-63.232 65.445-112.109 127.251-129.059l1.271-0.297c154.878-19.863 334.052-31.2 515.874-31.2 18.445 0 36.862 0.117 55.251 0.349l-2.793-0.028c15.548-0.204 33.906-0.32 52.291-0.32 181.589 0 360.531 11.336 536.155 33.34l-20.948-2.141c63.076 17.247 111.676 66.124 128.234 128.091l0.288 1.265c19.138 102.154 30.084 219.68 30.084 339.764 0 4.365-0.014 8.728-0.043 13.086l0.003-0.667c0.025 3.642 0.039 7.947 0.039 12.255 0 119.848-10.946 237.14-31.892 350.931l1.809-11.838zM578.347 232.267v431.465l379.723-215.315z" />
<glyph unicode="&#xe90d;" glyph-name="facebook, facebook-f" horiz-adv-x="602" d="M548 944v-150.857h-89.714c-70.286 0-83.429-33.714-83.429-82.286v-108h167.429l-22.286-169.143h-145.143v-433.714h-174.857v433.714h-145.714v169.143h145.714v124.571c0 144.571 88.571 223.429 217.714 223.429 61.714 0 114.857-4.571 130.286-6.857z" />
<glyph unicode="&#xe90e;" glyph-name="tiktok" d="M534.613 959.147c55.893 0.853 111.36 0.427 166.827 0.853 3.413-65.28 26.88-131.84 74.667-177.92 47.787-47.36 115.2-69.12 180.907-76.373v-171.947c-61.44 2.133-123.307 14.933-179.2 41.387-24.32 11.093-46.933 25.173-69.12 39.68-0.427-124.587 0.427-249.173-0.853-373.333-3.413-59.733-23.040-119.040-57.6-168.107-55.893-81.92-152.747-135.253-252.16-136.96-61.013-3.413-122.027 13.227-174.080 43.947-86.187 50.773-146.773 143.787-155.733 243.627-0.853 21.333-1.28 42.667-0.427 63.573 7.68 81.067 47.787 158.72 110.080 211.627 70.827 61.44 169.813 90.88 262.4 73.387 0.853-63.147-1.707-126.293-1.707-189.44-42.24 13.653-91.733 9.813-128.853-15.787-26.88-17.493-47.36-44.373-58.027-74.667-8.96-21.76-6.4-45.653-5.973-68.693 10.24-69.973 77.653-128.853 149.333-122.453 47.787 0.427 93.44 28.16 118.187 68.693 8.107 14.080 17.067 28.587 17.493 45.227 4.267 76.373 2.56 152.32 2.987 228.693 0.427 171.947-0.427 343.467 0.853 514.987z" />
<glyph unicode="&#xe90f;" glyph-name="discord" d="M862.805 960c59.989 0 108.373-48.512 111.232-105.6v-918.4l-114.219 96.981-62.72 57.088-68.437 59.648 28.587-94.080h-598.955c-59.819 0-108.373 45.44-108.373 105.643v692.907c0 57.088 48.64 105.685 108.587 105.685h704zM601.771 717.525h-1.28l-8.619-8.533c88.448-25.6 131.243-65.579 131.243-65.579-57.003 28.501-108.373 42.752-159.744 48.512-37.12 5.76-74.24 2.731-105.6 0h-8.533c-20.053 0-62.72-8.533-119.893-31.36-19.925-8.661-31.36-14.336-31.36-14.336s42.752 42.752 136.96 65.579l-5.76 5.76c0 0-71.339 2.731-148.352-54.187 0 0-77.013-134.144-77.013-299.52 0 0 42.667-74.24 159.701-77.056 0 0 17.067 22.741 34.347 42.752-65.707 19.968-91.307 59.904-91.307 59.904s5.717-2.816 14.293-8.533h2.56c1.28 0 1.877-0.64 2.56-1.28v-0.256c0.683-0.683 1.28-1.28 2.56-1.28 14.080-5.803 28.16-11.52 39.68-17.067 19.883-8.619 45.44-17.195 76.8-22.869 39.68-5.76 85.163-8.533 136.96 0 25.6 5.76 51.2 11.392 76.8 22.827 16.64 8.533 37.12 17.067 59.605 31.445 0 0-25.6-39.936-94.080-59.904 14.080-19.883 33.92-42.667 33.92-42.667 117.077 2.56 162.56 76.8 165.12 73.643 0 165.12-77.44 299.52-77.44 299.52-69.76 51.797-135.040 53.76-146.56 53.76zM608.939 529.237c29.995 0 54.187-25.6 54.187-56.96 0-31.573-24.32-57.173-54.187-57.173s-54.187 25.6-54.187 56.917c0.085 31.573 24.448 57.088 54.187 57.216zM415.104 529.237c29.867 0 54.016-25.6 54.016-56.96 0-31.573-24.32-57.173-54.187-57.173s-54.187 25.6-54.187 56.917c0 31.573 24.32 57.088 54.357 57.216z" />
<glyph unicode="&#xe910;" glyph-name="keyboard_arrow_right" d="M366 230.667l196 196-196 196 60 60 256-256-256-256z" />
<glyph unicode="&#xe911;" glyph-name="keyboard_arrow_left" d="M658 230.667l-60-60-256 256 256 256 60-60-196-196z" />
<glyph unicode="&#xe912;" glyph-name="keyboard_arrow_up" d="M316 280.667l-60 60 256 256 256-256-60-60-196 196z" />
<glyph unicode="&#xe913;" glyph-name="keyboard_arrow_down" d="M316 572.667l196-196 196 196 60-60-256-256-256 256z" />
<glyph unicode="&#xe914;" glyph-name="play" d="M512 960c-282.77 0-512-229.23-512-512s229.23-512 512-512 512 229.23 512 512-229.23 512-512 512zM512 32c-229.75 0-416 186.25-416 416s186.25 416 416 416 416-186.25 416-416-186.25-416-416-416zM384 672l384-224-384-224z" />
<glyph unicode="&#xe915;" glyph-name="play-outline" d="M150.016 98.816c-96.436 93.233-156.308 223.762-156.308 368.276 0 282.77 229.23 512 512 512 144.514 0 275.043-59.872 368.137-156.164l0.138-0.144c88.925-91.979 143.724-217.436 143.724-355.692 0-282.77-229.23-512-512-512-138.256 0-263.713 54.799-355.836 143.863l0.144-0.138zM801.792 171.008c74.164 74.164 120.036 176.621 120.036 289.792 0 226.342-183.486 409.828-409.828 409.828-113.171 0-215.628-45.872-289.792-120.036v0c-74.164-74.164-120.036-176.621-120.036-289.792 0-226.342 183.486-409.828 409.828-409.828 113.171 0 215.628 45.872 289.792 120.036v0zM358.4 665.6l409.6-204.8-409.6-204.8v409.6z" />
<glyph unicode="&#xe916;" glyph-name="play_circle_outline" d="M512 84.667q140 0 241 101t101 241-101 241-241 101-241-101-101-241 101-241 241-101zM512 852.667q176 0 301-125t125-301-125-301-301-125-301 125-125 301 125 301 301 125zM426 234.667v384l256-192z" />
<glyph unicode="&#xe917;" glyph-name="check_circle_outline" d="M512 84.667q140 0 241 101t101 241-101 241-241 101-241-101-101-241 101-241 241-101zM512 852.667q176 0 301-125t125-301-125-301-301-125-301 125-125 301 125 301 301 125zM708 614.667l60-60-342-342-212 214 60 60 152-152z" />
<glyph unicode="&#xe918;" glyph-name="target" d="M512 704c-141.376 0-256-114.624-256-256s114.624-256 256-256 256 114.624 256 256-114.624 256-256 256zM512 256c-106.016 0-192 85.984-192 192s85.984 192 192 192 192-85.984 192-192-85.984-192-192-192zM512 960c-282.784 0-512-229.216-512-512s229.216-512 512-512 512 229.216 512 512-229.216 512-512 512zM512 64c-212.064 0-384 171.936-384 384s171.936 384 384 384 384-171.936 384-384-171.936-384-384-384zM512 544c-53.024 0-96-42.976-96-96s42.976-96 96-96 96 42.976 96 96-42.976 96-96 96z" />
<glyph unicode="&#xe919;" glyph-name="dot-circle-o" horiz-adv-x="878" d="M585.143 438.857c0-80.571-65.714-146.286-146.286-146.286s-146.286 65.714-146.286 146.286 65.714 146.286 146.286 146.286 146.286-65.714 146.286-146.286zM438.857 749.714c-171.429 0-310.857-139.429-310.857-310.857s139.429-310.857 310.857-310.857 310.857 139.429 310.857 310.857-139.429 310.857-310.857 310.857zM877.714 438.857c0-242.286-196.571-438.857-438.857-438.857s-438.857 196.571-438.857 438.857 196.571 438.857 438.857 438.857v0c242.286 0 438.857-196.571 438.857-438.857z" />
<glyph unicode="&#xe91a;" glyph-name="circle-full" d="M512-64c-282.75 0-512 229.25-512 512s229.25 512 512 512 512-229.25 512-512-229.25-512-512-512zM512 832c-212.062 0-384-171.938-384-384s171.938-384 384-384 384 171.938 384 384-171.938 384-384 384zM512 192c-141.376 0-256 114.624-256 256s114.624 256 256 256 256-114.624 256-256-114.624-256-256-256z" />
<glyph unicode="&#xe91b;" glyph-name="dot-single" d="M399.36 460.8c0-62.208 50.483-112.64 112.691-112.64s112.589 50.483 112.589 112.64c0 62.208-50.381 112.589-112.589 112.589s-112.691-50.381-112.691-112.589z" />
<glyph unicode="&#xe91c;" glyph-name="instagram" horiz-adv-x="878" d="M585.143 438.857c0 80.571-65.714 146.286-146.286 146.286s-146.286-65.714-146.286-146.286 65.714-146.286 146.286-146.286 146.286 65.714 146.286 146.286zM664 438.857c0-124.571-100.571-225.143-225.143-225.143s-225.143 100.571-225.143 225.143 100.571 225.143 225.143 225.143 225.143-100.571 225.143-225.143zM725.714 673.143c0-29.143-23.429-52.571-52.571-52.571s-52.571 23.429-52.571 52.571 23.429 52.571 52.571 52.571 52.571-23.429 52.571-52.571zM438.857 798.857c-64 0-201.143 5.143-258.857-17.714-20-8-34.857-17.714-50.286-33.143s-25.143-30.286-33.143-50.286c-22.857-57.714-17.714-194.857-17.714-258.857s-5.143-201.143 17.714-258.857c8-20 17.714-34.857 33.143-50.286s30.286-25.143 50.286-33.143c57.714-22.857 194.857-17.714 258.857-17.714s201.143-5.143 258.857 17.714c20 8 34.857 17.714 50.286 33.143s25.143 30.286 33.143 50.286c22.857 57.714 17.714 194.857 17.714 258.857s5.143 201.143-17.714 258.857c-8 20-17.714 34.857-33.143 50.286s-30.286 25.143-50.286 33.143c-57.714 22.857-194.857 17.714-258.857 17.714zM877.714 438.857c0-60.571 0.571-120.571-2.857-181.143-3.429-70.286-19.429-132.571-70.857-184s-113.714-67.429-184-70.857c-60.571-3.429-120.571-2.857-181.143-2.857s-120.571-0.571-181.143 2.857c-70.286 3.429-132.571 19.429-184 70.857s-67.429 113.714-70.857 184c-3.429 60.571-2.857 120.571-2.857 181.143s-0.571 120.571 2.857 181.143c3.429 70.286 19.429 132.571 70.857 184s113.714 67.429 184 70.857c60.571 3.429 120.571 2.857 181.143 2.857s120.571 0.571 181.143-2.857c70.286-3.429 132.571-19.429 184-70.857s67.429-113.714 70.857-184c3.429-60.571 2.857-120.571 2.857-181.143z" />
<glyph unicode="&#xe91d;" glyph-name="arrow-down" d="M460.8 144.794l-310.835 310.835-72.397-72.397 434.432-434.432 434.432 434.432-72.397 72.397-310.835-310.835v828.006h-102.4z" />
<glyph unicode="&#xe91e;" glyph-name="arrow-up" d="M460.8 776.806l-310.835-310.835-72.397 72.397 434.432 434.432 434.432-434.432-72.397-72.397-310.835 310.835v-828.006h-102.4v828.006z" />
</font>
</defs>
</svg>
