<?xml version="1.0" encoding="utf-8"?>
<!-- Generator: Adobe Illustrator 25.2.0, SVG Export Plug-In . SVG Version: 6.00 Build 0)  -->
<svg version="1.1" id="Layer_1" xmlns="http://www.w3.org/2000/svg" xmlns:xlink="http://www.w3.org/1999/xlink" x="0px" y="0px"
	 viewBox="0 0 144.1 67.5" style="enable-background:new 0 0 144.1 67.5;" xml:space="preserve">
<style type="text/css">
	.st0{fill:#FFFFFF;}
</style>
<g>
	<g>
		<path class="st0" d="M76.5,48.9c-3.5,3-5.5,2.9-8.9-0.1c-18.2-15.5-36.6-30.7-55-46C9.4,0.2,6.2-0.5,3,2.7
			c-2.7,2.7-2.3,6.6,1.1,9.4C25.1,29.8,46.3,47.4,67.4,65c3.1,2.6,6.3,2.5,9.4,0c1-0.9,2.1-1.7,3.1-2.6V46
			C78.7,47,77.6,48,76.5,48.9z"/>
	</g>
	<g>
		<path class="st0" d="M67.7,48.9c3.5,3,5.5,2.9,8.9-0.1c18.2-15.5,36.6-30.7,55-46c3.2-2.7,6.4-3.3,9.6-0.2
			c2.7,2.7,2.3,6.6-1.1,9.4C119,29.8,97.9,47.4,76.7,65c-3.1,2.6-6.3,2.5-9.4,0c-1-0.9-2.1-1.7-3.1-2.6V46
			C65.4,47,66.5,48,67.7,48.9z"/>
	</g>
</g>
</svg>
