<svg id="Layer_1" data-name="Layer 1" xmlns="http://www.w3.org/2000/svg" viewBox="0 0 1636.34 1871.03"><defs><style>.cls-1{fill:#fff;}</style></defs><path class="cls-1" d="M1636.34,180.3V1871q-30.09-26.67-60.21-53.34c-81.36-71.66-162.61-143.43-241.58-217.74-41.22-38.78-82.85-77.12-124.33-115.62-1.72-1.59-3.16-3.72-6.71-4.45l48.5,169.59c-4.12,1.26-7.55.83-10.91.83q-485,0-970.08,0-37.83,0-75.67,0c-10.92,0-21.85-.14-32.61-2.1q-105.32-19.14-148.27-117.3C6,1511.59,2,1491.11.35,1470.11.23,1464,0,1457.87,0,1451.76Q0,825,0,198.32c0-5.66.1-11.33.15-17,.24-1.8.55-3.59.71-5.4C5.49,125.49,26.55,83.12,64,49.16,97.5,18.74,137.36,3,182.4,0c4.09.07,8.17.19,12.25.19q623.72,0,1247.42,0c4.31,0,8.63-.11,12.94-.17,5.86.62,11.75,1,17.58,1.89A192.46,192.46,0,0,1,1634,160.14C1635.11,166.85,1634.23,173.74,1636.34,180.3Zm-453.27,384c-2.26-1-4.56-2-6.77-3.14q-162-83.78-344.42-85.92a775.52,775.52,0,0,0-95.87,5c-21,2.36-42,4.25-62.83,7.73-59.89,10-117.36,28.13-173.1,52-17.75,7.6-34.84,16.59-52.32,24.76l-1.06-1.36c2-2.56,4.7-4.27,7.2-6.2Q472.29,543,492,530.75c56.53-35.19,117.37-60.62,180.86-80.09,3.43-1.05,7.06-1.57,10.12-3.5.17-2.56-1.87-3.68-2.85-5.4-3-5.27-7.48-6.16-13.28-5.73a420,420,0,0,0-45.32,5.4C546.27,455.38,478.29,486,416.61,531.12a21.37,21.37,0,0,0-6.88,8.24c-3.85,8-8,15.81-11.78,23.84a1292.05,1292.05,0,0,0-108,357,1097.45,1097.45,0,0,0-12.14,152.14,23.17,23.17,0,0,0,4.66,14.46,268.27,268.27,0,0,0,40.1,44.5c67.21,59.73,147.14,86.34,235.72,90.36a8.85,8.85,0,0,0,8.11-3.73c18.47-23.08,37.08-46,55.61-69.06,1-1.31,2.8-2.47,2-4.63a6.18,6.18,0,0,0-1.18-.74q-3.54-1.26-7.09-2.44c-44.77-14.84-85.44-36.91-120.33-69-11.21-10.32-21.85-21.2-30.13-34.14a6.76,6.76,0,0,0,1-.8c2.29.5,4,2.06,6,3.21,13.28,7.85,26.29,16.18,40,23.27,40.74,21,83.58,36.63,127.44,49.57A679.13,679.13,0,0,0,806,1140.61a655.42,655.42,0,0,0,142.42-10.35c72.65-13.12,140.87-38.54,205.91-73,10.62-5.62,20.78-12.13,31.16-18.23l1.59,1.73c-9.72,13.89-21.64,25.73-34.38,36.77-36,31.17-77.36,52.36-122.67,66.25-7.64,2.34-7.73,2.42-2.83,8.46,17.49,21.53,35.13,42.94,52.49,64.57,3,3.8,6.27,5.09,11,4.82a461.5,461.5,0,0,0,61.46-7.06c51.32-9.83,99-28.55,141.91-58.65,27.75-19.47,52.22-42.35,72-70a20.76,20.76,0,0,0,4.19-13.23c-.45-19.55-1.18-39.08-2.31-58.61-2.07-35.44-6.11-70.66-11.65-105.7a1275.85,1275.85,0,0,0-50.62-205.67c-18.7-55.91-40.51-110.55-67.36-163.1a23.85,23.85,0,0,0-7.3-8.75c-49.7-36.27-103.9-63.34-163.21-79.94-29.19-8.17-58.88-13.49-89.21-14.91-2.44-.11-5.12-.82-7.07,1.39-3.7,4.2-7.74,8.15-11,13.09,2.32,1.92,4.85,2.19,7.15,2.93,60.86,19.43,119.19,44.46,173.39,78.59,15,9.45,29.72,19.32,43.15,31C1183.83,563.41,1183.45,563.83,1183.07,564.25Z"/><path class="cls-1" d="M744.5,891.81c-.39,25.71-9.49,51.73-30.3,72.89-38.3,38.93-98.07,36.9-134-4.3-11.57-13.27-19.71-28.45-23.37-45.62-8.86-41.63.74-78.33,32.81-107,39-34.94,97.38-29.23,130.89,11.69C736.87,839.39,744.49,862.45,744.5,891.81Z"/><path class="cls-1" d="M895.12,887.84c.32-27.75,9.28-53.16,29.31-74,37.35-38.81,94.88-38.61,132.29.15,40.5,42,38.27,115-4.71,154.29-38.26,35-94.7,32-129.71-7.17C903.94,940.59,895.33,916.23,895.12,887.84Z"/><path class="cls-1" d="M1186.11,1038.45c1.05-1.32,2.14-2.58,4.18-2.48.1,2.07-1.22,3.09-2.58,4.1Z"/><path class="cls-1" d="M1185.36,563.56a16.32,16.32,0,0,1,2.23,1.28c.68.54,1.36,1.4.54,2.18s-1.61.07-2.32-.4a6,6,0,0,1-.91-.91C1185.05,565,1185.21,564.28,1185.36,563.56Z"/><path class="cls-1" d="M445.72,565.92a3,3,0,0,1-2.23,1.12l-.77-.79a5.31,5.31,0,0,1,3-2.46Z"/><path class="cls-1" d="M445.72,565.92v-2.13a1.58,1.58,0,0,1,1-.46l1.06,1.36Z"/><path class="cls-1" d="M1185.36,563.56c-.15.72-.31,1.43-.46,2.15l-1.83-1.46,1.14-1.27A6.88,6.88,0,0,1,1185.36,563.56Z"/><path class="cls-1" d="M443.49,567l-1.91.74.08.09a1.83,1.83,0,0,1,1.06-1.62Z"/><path class="cls-1" d="M441.58,567.78l.08.09Z"/><path class="cls-1" d="M465.27,1038c-.36-.52-.61-1.09.12-1.44.15-.07.56.41.85.64A6.76,6.76,0,0,1,465.27,1038Z"/><path class="cls-1" d="M1186.11,1038.45l1.6,1.62a1.56,1.56,0,0,1-.68.71l-1.59-1.73A1.27,1.27,0,0,1,1186.11,1038.45Z"/></svg>